<?xml version="1.0" encoding="UTF-8" standalone="no"?>
<svg
   version="1.0"
   width="425.000000pt"
   height="348.000000pt"
   viewBox="0 0 425.000000 348.000000"
   preserveAspectRatio="xMidYMid meet"
   id="svg4"
   sodipodi:docname="softcleverlogo.svg"
   inkscape:version="1.4.3 (0d15f75, 2025-12-25)"
   xmlns:inkscape="http://www.inkscape.org/namespaces/inkscape"
   xmlns:sodipodi="http://sodipodi.sourceforge.net/DTD/sodipodi-0.dtd"
   xmlns="http://www.w3.org/2000/svg"
   xmlns:svg="http://www.w3.org/2000/svg">
  <defs
     id="defs4" />
  <sodipodi:namedview
     id="namedview4"
     pagecolor="#505050"
     bordercolor="#eeeeee"
     borderopacity="1"
     inkscape:showpageshadow="0"
     inkscape:pageopacity="0"
     inkscape:pagecheckerboard="0"
     inkscape:deskcolor="#505050"
     inkscape:document-units="pt"
     inkscape:zoom="1.0840517"
     inkscape:cx="283.19682"
     inkscape:cy="232"
     inkscape:window-width="1366"
     inkscape:window-height="705"
     inkscape:window-x="1358"
     inkscape:window-y="-8"
     inkscape:window-maximized="1"
     inkscape:current-layer="svg4" />
  <g
     transform="matrix(0.15929199,0,0,-0.15929199,-105.55927,486.44059)"
     fill="#000000"
     stroke="none"
     id="g4">
    <path
       d="m 2000,2948 c -43,-99 -228,-483 -299,-617 -39,-74 -68,-137 -66,-141 2,-4 41,-10 86,-13 131,-10 219,-62 260,-152 14,-30 19,-65 19,-143 v -103 l -137,3 -138,3 -8,75 c -9,82 -20,102 -51,98 -45,-7 -62,-116 -27,-174 11,-18 67,-63 133,-107 62,-41 125,-86 140,-99 86,-76 124,-192 115,-356 -3,-53 -10,-114 -16,-134 -12,-38 -56,-90 -101,-120 -24,-16 -17,-17 149,-17 l 174,-1 -43,46 c -78,85 -82,103 -92,414 -12,355 -7,499 19,566 42,108 115,169 233,194 41,9 75,21 75,26 0,5 -59,126 -131,269 -72,143 -159,322 -193,398 -35,75 -67,137 -71,137 -4,0 -18,-24 -30,-52 z"
       id="path1" />
    <path
       d="m 2431,1953 c -21,-14 -21,-21 -21,-412 0,-295 3,-400 12,-409 15,-15 61,-15 76,0 8,8 12,56 12,149 0,164 -13,153 164,148 146,-5 146,-5 84,107 l -44,79 -99,5 -100,5 -3,154 c -1,85 -7,160 -13,167 -16,19 -46,23 -68,7 z"
       id="path2" />
    <path
       d="m 1190,1307 c -90,-182 -166,-338 -168,-344 -3,-10 48,-13 229,-13 h 232 l -46,40 c -64,56 -84,115 -87,250 -1,58 -2,111 -1,118 1,10 33,12 139,10 l 137,-3 5,-106 c 5,-109 16,-139 50,-139 30,0 53,37 58,94 9,105 -22,149 -186,264 -53,38 -116,90 -140,116 -23,25 -46,46 -50,46 -4,0 -81,-150 -172,-333 z"
       id="path3" />
    <path
       d="m 2817,1368 c -2,-7 -2,-36 0,-63 12,-117 -28,-244 -99,-314 l -39,-40 185,-3 c 102,-2 186,-2 186,-1 0,11 -213,429 -219,431 -5,2 -11,-3 -14,-10 z"
       id="path4" />
  </g>
</svg>
